<svg version="1.0" xmlns="http://www.w3.org/2000/svg"
 width="93.000000pt" height="74.000000pt" viewBox="0 0 93.000000 74.000000"
 preserveAspectRatio="xMidYMid meet">
<g transform="translate(0.000000,74.000000) scale(0.100000,-0.100000)" stroke="none">
<path d="M310 670 l0 -50 -50 0 -50 0 0 -50 0 -50 -50 0 -50 0 0 -50 0 -50
-50 0 -50 0 0 -200 0 -200 50 0 50 0 0 50 0 50 50 0 50 0 0 -50 0 -50 50 0 50
0 0 50 0 50 50 0 50 0 0 -50 0 -50 50 0 50 0 0 50 0 50 50 0 50 0 0 -50 0 -50
50 0 50 0 0 50 0 50 50 0 50 0 0 -50 0 -50 50 0 50 0 0 200 0 200 -50 0 -50 0
0 50 0 50 -50 0 -50 0 0 50 0 50 -50 0 -50 0 0 50 0 50 -50 0 -50 0 0 -50 0
-50 -50 0 -50 0 0 50 0 50 -50 0 -50 0 0 -50z m100 -300 l0 -50 -100 0 -100 0
0 50 0 50 100 0 100 0 0 -50z m300 0 l0 -50 -100 0 -100 0 0 50 0 50 100 0
100 0 0 -50z"/>
</g>
</svg>
