<svg class="img-fluid" id="outputsvg" xmlns="http://www.w3.org/2000/svg" width="96" height="96" viewBox="0 0 960 960">
    <g id="lL9AGWULh1k30iFizE3Gxg" fill="none" stroke="none">
        <g>
            <path id="pkqg9lUQd" d="M0 480 l0 -480 480 0 480 0 0 480 0 480 -480 0 -480 0 0 -480z m400 320 l0 -100 80 0 80 0 0 100 0 100 70 0 c63 0 70 -2 70 -20 0 -17 -7 -20 -50 -20 l-50 0 0 -80 0 -80 50 0 50 0 0 -100 0 -100 80 0 80 0 0 100 c0 93 1 100 20 100 19 0 20 -7 20 -120 l0 -120 -50 0 -50 0 0 -50 0 -50 -50 0 -50 0 0 -50 0 -50 -50 0 -50 0 0 -50 c0 -43 -3 -50 -20 -50 -17 0 -20 7 -20 50 l0 50 -80 0 -80 0 0 -50 c0 -43 -3 -50 -20 -50 -17 0 -20 7 -20 50 l0 50 -50 0 -50 0 0 50 0 50 -50 0 -50 0 0 50 0 50 -50 0 -50 0 0 120 c0 113 1 120 20 120 19 0 20 -7 20 -100 l0 -100 80 0 80 0 0 100 0 100 50 0 50 0 0 80 0 80 -50 0 c-43 0 -50 3 -50 20 0 18 7 20 70 20 l70 0 0 -100z m-100 -720 c0 -13 -7 -20 -20 -20 -13 0 -20 7 -20 20 0 13 7 20 20 20 13 0 20 -7 20 -20z m400 0 c0 -13 -7 -20 -20 -20 -13 0 -20 7 -20 20 0 13 7 20 20 20 13 0 20 -7 20 -20z"></path><path id="p6DNnZfv2" d="M300 380 l0 -80 80 0 80 0 0 80 0 80 -80 0 -80 0 0 -80z"></path>
            <path id="p9NMKiRBY" d="M500 380 l0 -80 80 0 80 0 0 80 0 80 -80 0 -80 0 0 -80z"></path>
        </g>
    </g>
    <g id="l5ncUL3ojMRNoxB8LcRumgo" fill="rgb(247,220,77)">
        <g>
            <path id="pUN7wSdxb" d="M230 880 l0 -50 50 0 50 0 0 -50 0 -50 -50 0 -50 0 0 -100 0 -100 -50 0 -50 0 0 100 0 100 -50 0 -50 0 0 -150 0 -150 50 0 50 0 0 -50 0 -50 50 0 50 0 0 -50 0 -50 50 0 50 0 0 -50 0 -50 -50 0 -50 0 0 -50 0 -50 50 0 50 0 0 50 0 50 50 0 50 0 0 50 0 50 50 0 50 0 0 -50 0 -50 50 0 50 0 0 -50 0 -50 50 0 50 0 0 50 0 50 -50 0 -50 0 0 50 0 50 50 0 50 0 0 50 0 50 50 0 50 0 0 50 0 50 50 0 50 0 0 150 0 150 -50 0 -50 0 0 -100 0 -100 -50 0 -50 0 0 100 0 100 -50 0 -50 0 0 50 0 50 50 0 50 0 0 50 0 50 -100 0 -100 0 0 -100 0 -100 -50 0 -50 0 0 100 0 100 -100 0 -100 0 0 -50z m200 -500 l0 -50 -50 0 -50 0 0 50 0 50 50 0 50 0 0 -50z m200 0 l0 -50 -50 0 -50 0 0 50 0 50 50 0 50 0 0 -50z"></path>
        </g>
    </g>
</svg>