<!-- icon666.com - MILLIONS OF FREE VECTOR ICONS --><svg id="Layer_1" viewBox="0 0 512 512" xmlns="http://www.w3.org/2000/svg" data-name="Layer 1"><path d="m345.8 308.3c2.207 18.181-2.671 34.78-14.108 48-13.182 15.242-34.925 25.521-59.692 28.6v17.7a16 16 0 0 1 -32 0v-17.938c-36.886-5.435-65.5-28.984-73.847-62.474a16 16 0 1 1 31.05-7.741c7.475 29.979 37.771 39.96 61.441 39.389 20.389-.485 39.56-7.733 48.841-18.464 5.524-6.388 7.665-13.98 6.544-23.213-2.68-22.077-21.312-34.786-60.411-41.2-64.038-10.515-78.956-43.147-80.194-68.671-1.717-35.358 22.987-64.979 61.474-73.708 1.675-.38 3.381-.7 5.1-.991v-18.189a16 16 0 0 1 32 0v18.045c27.061 4.3 53.605 20.187 66.956 51.984a16 16 0 0 1 -29.5 12.389c-10.126-24.118-31.9-33.8-52.835-33.7-.206.008-.408.032-.616.032-.116 0-.228-.015-.343-.018a67.86 67.86 0 0 0 -13.681 1.654c-18.447 4.184-37.747 17.138-36.59 40.949.628 12.929 6.847 31 53.417 38.645 22.533 3.7 39.307 9.214 52.788 17.354 20.006 12.076 31.514 29.428 34.206 51.566zm166.2-52.3c0 141.16-114.841 256-256 256s-256-114.84-256-256 114.84-256 256-256 256 114.84 256 256zm-32 0c0-123.515-100.485-224-224-224s-224 100.485-224 224 100.485 224 224 224 224-100.485 224-224z"></path></svg>