<!-- icon666.com - MILLIONS OF FREE VECTOR ICONS --><svg version="1.1" id="Capa_1" xmlns="http://www.w3.org/2000/svg" xmlns:xlink="http://www.w3.org/1999/xlink" x="0px" y="0px" viewBox="0 0 512 512" style="enable-background:new 0 0 512 512;" xml:space="preserve"><g><g><g><path d="M55.652,378.435C24.977,378.435,0,403.389,0,434.087c0,30.698,24.977,55.652,55.652,55.652s55.652-24.954,55.652-55.652 C111.304,403.389,86.328,378.435,55.652,378.435z M55.652,467.478c-18.41,0-33.391-14.982-33.391-33.391 s14.982-33.391,33.391-33.391s33.391,14.982,33.391,33.391S74.062,467.478,55.652,467.478z"></path><path d="M144.696,89.043H500.87c6.144,0,11.13-4.986,11.13-11.13c0-6.144-4.986-11.13-11.13-11.13H144.696 c-6.144,0-11.13,4.986-11.13,11.13C133.565,84.057,138.552,89.043,144.696,89.043z"></path><path d="M55.652,22.261C24.977,22.261,0,47.215,0,77.913s24.977,55.652,55.652,55.652s55.652-24.954,55.652-55.652 C111.304,47.215,86.328,22.261,55.652,22.261z M55.652,111.304c-18.41,0-33.391-14.982-33.391-33.391 s14.982-33.391,33.391-33.391s33.391,14.982,33.391,33.391C89.043,96.323,74.062,111.304,55.652,111.304z"></path><path d="M55.652,200.348C24.977,200.348,0,225.302,0,256s24.977,55.652,55.652,55.652s55.652-24.954,55.652-55.652 S86.328,200.348,55.652,200.348z M55.652,289.391c-18.41,0-33.391-14.982-33.391-33.391s14.982-33.391,33.391-33.391 S89.043,237.59,89.043,256S74.062,289.391,55.652,289.391z"></path><path d="M500.87,244.87H144.696c-6.144,0-11.13,4.986-11.13,11.13s4.986,11.13,11.13,11.13H500.87 c6.144,0,11.13-4.986,11.13-11.13S507.014,244.87,500.87,244.87z"></path><path d="M500.87,422.957H144.696c-6.144,0-11.13,4.986-11.13,11.13s4.986,11.13,11.13,11.13H500.87 c6.144,0,11.13-4.986,11.13-11.13S507.014,422.957,500.87,422.957z"></path></g></g></g></svg>