<svg xmlns="http://www.w3.org/2000/svg" viewBox="0 0 64 64"><g id="Sales_statistic"><path d="M11,28a4.96857,4.96857,0,0,0,3.404-1.35907l5.66925,2.08362A4.98808,4.98808,0,1,0,29.019,25.054l7.321-6.83649A4.95541,4.95541,0,0,0,39,19a4.98517,4.98517,0,0,0,4.56824-7.01459L48.67548,9.463A4.96317,4.96317,0,1,0,48,7a4.89751,4.89751,0,0,0,.0545.53925L42.382,10.34088a4.98646,4.98646,0,0,0-7.49207,6.49481l-7.36212,6.87494a4.93765,4.93765,0,0,0-7.31744,2.934l-4.6076-1.69342A4.99949,4.99949,0,1,0,11,28ZM53,4a3,3,0,1,1-3,3A3.00328,3.00328,0,0,1,53,4ZM39,11a3,3,0,1,1-3,3A3.00328,3.00328,0,0,1,39,11ZM25,25a3,3,0,1,1-3,3A3.00328,3.00328,0,0,1,25,25ZM11,20a3,3,0,1,1-3,3A3.00328,3.00328,0,0,1,11,20Z"></path><path d="M61,60H59V16a.99974.99974,0,0,0-1-1H48a.99974.99974,0,0,0-1,1V60H45V26a.99974.99974,0,0,0-1-1H34a.99974.99974,0,0,0-1,1V60H31V37a.99974.99974,0,0,0-1-1H20a.99974.99974,0,0,0-1,1V60H17V32a.99974.99974,0,0,0-1-1H6a.99974.99974,0,0,0-1,1V60H3a1,1,0,0,0,0,2H61a1,1,0,0,0,0-2ZM7,60V33h8V60Zm14,0V38h8V60Zm14,0V27h8V60Zm14,0V17h8V60Z"></path></g></svg>